<svg width="270" height="67" viewBox="0 0 270 67" fill="none" xmlns="http://www.w3.org/2000/svg">
<g clip-path="url(#clip0_532_35)">
<path d="M57.5278 10.0997H55.8434V14.5465C55.8434 15.6498 54.9423 16.551 53.839 16.551C52.7357 16.551 51.8346 15.6498 51.8346 14.5465V10.0997H47.6994V14.5465C47.6994 15.6498 46.8066 16.551 45.6949 16.551C44.5832 16.551 43.6905 15.6498 43.6905 14.5465V10.0997H39.5553V14.5465C39.5553 15.6498 38.6626 16.551 37.5509 16.551C36.4392 16.551 35.5464 15.6498 35.5464 14.5465V10.0997H31.4113V14.5465C31.4113 15.6498 30.5185 16.551 29.4068 16.551C28.2951 16.551 27.4024 15.6498 27.4024 14.5465V10.0997H23.2672V14.5465C23.2672 15.6498 22.366 16.551 21.2628 16.551C20.1595 16.551 19.2583 15.6498 19.2583 14.5465V10.0997H15.1231V14.5465C15.1231 15.6498 14.2304 16.551 13.1187 16.551C12.007 16.551 11.1143 15.6498 11.1143 14.5465V10.0997H9.42987C7.78758 10.0997 6.44849 11.4388 6.44849 13.0811V18.109H60.484V13.0811C60.484 11.4388 59.1449 10.0997 57.5026 10.0997H57.5278ZM13.144 15.4898C13.6661 15.4898 14.0872 15.0687 14.0872 14.5465V7.54788C14.0872 7.02571 13.6661 6.60461 13.144 6.60461C12.6218 6.60461 12.2007 7.02571 12.2007 7.54788V14.5465C12.2007 15.0687 12.6218 15.4898 13.144 15.4898ZM21.288 15.4898C21.8102 15.4898 22.2313 15.0687 22.2313 14.5465V7.54788C22.2313 7.02571 21.8102 6.60461 21.288 6.60461C20.7659 6.60461 20.3448 7.02571 20.3448 7.54788V14.5465C20.3448 15.0687 20.7659 15.4898 21.288 15.4898ZM29.4237 15.4898C29.9458 15.4898 30.3669 15.0687 30.3669 14.5465V7.54788C30.3669 7.02571 29.9458 6.60461 29.4237 6.60461C28.9015 6.60461 28.4804 7.02571 28.4804 7.54788V14.5465C28.4804 15.0687 28.9015 15.4898 29.4237 15.4898ZM37.5593 15.4898C38.0815 15.4898 38.5026 15.0687 38.5026 14.5465V7.54788C38.5026 7.02571 38.0815 6.60461 37.5593 6.60461C37.0371 6.60461 36.616 7.02571 36.616 7.54788V14.5465C36.616 15.0687 37.0371 15.4898 37.5593 15.4898ZM45.7034 15.4898C46.2255 15.4898 46.6466 15.0687 46.6466 14.5465V7.54788C46.6466 7.02571 46.2255 6.60461 45.7034 6.60461C45.1812 6.60461 44.7601 7.02571 44.7601 7.54788V14.5465C44.7601 15.0687 45.1812 15.4898 45.7034 15.4898ZM53.839 15.4898C54.3612 15.4898 54.7823 15.0687 54.7823 14.5465V7.54788C54.7823 7.02571 54.3612 6.60461 53.839 6.60461C53.3168 6.60461 52.8957 7.02571 52.8957 7.54788V14.5465C52.8957 15.0687 53.3168 15.4898 53.839 15.4898ZM6.47375 53.3972C6.47375 55.0394 7.81285 56.3785 9.45514 56.3785H57.5278C59.1701 56.3785 60.5092 55.0394 60.5092 53.3972V20.004H6.47375V53.3972ZM47.8594 26.0762C47.8594 25.6299 48.0447 25.2172 48.3394 24.9224C48.6342 24.6277 49.0469 24.4424 49.4933 24.4424H52.5083C52.9547 24.4424 53.3674 24.6277 53.6621 24.9224C53.9569 25.2172 54.1422 25.6299 54.1422 26.0762V29.0913C54.1422 29.9925 53.4011 30.7252 52.5083 30.7252H49.4933C48.5921 30.7252 47.8594 29.984 47.8594 29.0913V26.0762ZM47.8594 35.7363C47.8594 34.8351 48.6005 34.1024 49.4933 34.1024H52.5083C53.4095 34.1024 54.1422 34.8351 54.1422 35.7363V38.7513C54.1422 39.1977 53.9569 39.6104 53.6621 39.9051C53.3674 40.1999 52.9547 40.3852 52.5083 40.3852H49.4933C49.0469 40.3852 48.6342 40.1999 48.3394 39.9051C48.3142 39.8799 48.2889 39.8546 48.2636 39.8209C48.011 39.5346 47.8594 39.1556 47.8594 38.7429V35.7278V35.7363ZM36.1865 26.0762C36.1865 25.6299 36.3718 25.2172 36.6666 24.9224C36.9613 24.6277 37.374 24.4424 37.8204 24.4424H40.8355C41.2818 24.4424 41.6945 24.6277 41.9893 24.9224C42.284 25.2172 42.4693 25.6299 42.4693 26.0762V29.0913C42.4693 29.9925 41.7282 30.7252 40.8355 30.7252H37.8204C36.9192 30.7252 36.1865 29.984 36.1865 29.0913V26.0762ZM36.1865 35.7363C36.1865 34.8351 36.9277 34.1024 37.8204 34.1024H40.8355C41.7366 34.1024 42.4693 34.8351 42.4693 35.7363V38.7513C42.4693 39.1977 42.284 39.6104 41.9893 39.9051C41.6945 40.1999 41.2818 40.3852 40.8355 40.3852H37.8204C37.374 40.3852 36.9613 40.1999 36.6666 39.9051C36.6413 39.8799 36.616 39.8546 36.5908 39.8209C36.3381 39.5346 36.1865 39.1556 36.1865 38.7429V35.7278V35.7363ZM36.1865 45.4047C36.1865 44.5035 36.9277 43.7708 37.8204 43.7708H40.8355C41.7366 43.7708 42.4693 44.5035 42.4693 45.4047V48.4198C42.4693 48.8661 42.284 49.2788 41.9893 49.5736C41.6945 49.8683 41.2818 50.0536 40.8355 50.0536H37.8204C37.374 50.0536 36.9613 49.8683 36.6666 49.5736C36.6413 49.5483 36.616 49.523 36.5908 49.4894C36.3381 49.203 36.1865 48.824 36.1865 48.4113V45.3963V45.4047ZM24.5136 26.0762C24.5136 25.6299 24.6989 25.2172 24.9937 24.9224C25.2885 24.6277 25.7011 24.4424 26.1475 24.4424H29.1626C29.6089 24.4424 30.0216 24.6277 30.3164 24.9224C30.6112 25.2172 30.7965 25.6299 30.7965 26.0762V29.0913C30.7965 29.9925 30.0553 30.7252 29.1626 30.7252H26.1475C25.2464 30.7252 24.5136 29.984 24.5136 29.0913V26.0762ZM24.5136 35.7363C24.5136 35.2899 24.6989 34.8772 24.9937 34.5824C25.2885 34.2877 25.0442 34.5319 25.0779 34.5067C25.3643 34.254 25.7433 34.1024 26.1559 34.1024H29.171C29.6174 34.1024 30.03 34.2877 30.3248 34.5824C30.3501 34.6077 30.3754 34.633 30.4006 34.6582C30.6533 34.9446 30.8049 35.3236 30.8049 35.7363V38.7513C30.8049 39.1977 30.6196 39.6104 30.3248 39.9051L30.3164 39.922C30.0216 40.2083 29.6174 40.3936 29.171 40.3936H26.1559C25.7011 40.3936 25.2969 40.2083 25.0021 39.9136C24.7074 39.6188 24.5221 39.2061 24.5221 38.7598V35.7447L24.5136 35.7363ZM24.5136 45.4047C24.5136 44.9583 24.6989 44.5457 24.9937 44.2509C25.019 44.2256 25.0442 44.2004 25.0779 44.1751C25.3643 43.9224 25.7433 43.7708 26.1559 43.7708H29.171C30.0722 43.7708 30.8049 44.512 30.8049 45.4047V48.4198C30.8049 49.3209 30.0722 50.0536 29.171 50.0536H26.1559C25.7011 50.0536 25.2969 49.8683 25.0021 49.5736C24.7074 49.2788 24.5221 48.8661 24.5221 48.4198V45.4047H24.5136ZM12.8324 35.7363C12.8324 35.2899 13.0176 34.8772 13.3124 34.5824C13.3377 34.5572 13.3629 34.5319 13.3966 34.5067C13.683 34.254 14.062 34.1024 14.4746 34.1024H17.4897C17.9361 34.1024 18.3488 34.2877 18.6435 34.5824C18.6688 34.6077 18.6941 34.633 18.7193 34.6582C18.972 34.9446 19.1236 35.3236 19.1236 35.7363V38.7513C19.1236 39.1977 18.9383 39.6104 18.6435 39.9051L18.6351 39.922C18.3403 40.2083 17.9361 40.3936 17.4897 40.3936H14.4746C14.0199 40.3936 13.6156 40.2083 13.3208 39.9136C13.0261 39.6188 12.8408 39.2061 12.8408 38.7598V35.7447L12.8324 35.7363ZM12.8324 45.4047C12.8324 44.9583 13.0176 44.5457 13.3124 44.2509C13.3377 44.2256 13.3629 44.2004 13.3966 44.1751C13.683 43.9224 14.062 43.7708 14.4746 43.7708H17.4897C17.9361 43.7708 18.3488 43.9561 18.6435 44.2509C18.6688 44.2762 18.6941 44.3014 18.7193 44.3267C18.972 44.613 19.1236 44.992 19.1236 45.4047V48.4198C19.1236 48.8661 18.9383 49.2788 18.6435 49.5736L18.6351 49.5904C18.3403 49.8852 17.9361 50.0621 17.4897 50.0621H14.4746C14.0199 50.0621 13.6156 49.8768 13.3208 49.582C13.0261 49.2872 12.8408 48.8746 12.8408 48.4282V45.4131L12.8324 45.4047Z" fill="white"/>
<path d="M73.1001 21.7389C70.9946 18.2185 67.1626 16.4078 62.2863 16.6436C53.7127 17.0563 41.9051 24.1139 34.8558 38.9703C30.5691 47.9987 26.4844 54.6605 22.7198 58.7535C18.753 63.074 15.2495 64.5479 12.0154 63.2762C10.6005 62.7203 9.61516 61.7181 9.00035 60.2106C6.50745 54.0878 10.9206 42.4233 12.3355 38.9871C12.7481 39.0377 13.1608 39.0629 13.5735 39.0629C22.1218 39.0629 31.3439 28.2154 34.4853 23.5075C36.9192 19.8608 39.21 16.4162 38.292 12.9632C37.652 10.5461 35.5633 8.53324 31.706 6.60461L30.5017 9.02172C33.5673 10.5461 35.2601 12.0621 35.6812 13.6538C36.2455 15.7762 34.6874 18.3364 32.2366 22.0084C28.4888 27.6343 18.4582 38.4566 11.3922 35.9973C5.53892 33.9676 3.29025 21.9495 3.13865 11.3799C3.08812 7.86791 3.62713 5.68661 4.79778 4.69282C6.28847 3.42952 9.18564 3.83378 12.8324 4.49069L13.3124 1.82934C8.95824 1.0461 5.43785 0.608154 3.05443 2.62943C1.21002 4.1875 0.384663 6.9836 0.443617 11.4136C0.54468 18.3364 1.6648 34.4645 9.73307 38.2207C8.09078 42.2465 3.68608 54.2562 6.50745 61.2128C7.40018 63.4109 8.92456 64.9437 11.0385 65.7775C12.1249 66.207 13.2198 66.4176 14.3315 66.4176C21.3891 66.4176 28.9352 57.7513 37.3066 40.1073C40.2965 33.7992 44.4738 28.4849 49.3754 24.7287C53.6706 21.4357 58.3027 19.5155 62.421 19.3218C66.2446 19.1365 69.2176 20.484 70.784 23.1033C73.1759 27.1037 73.5296 32.5527 71.7863 38.4397C70.2366 43.6866 67.0868 48.7651 63.558 51.6791L65.2761 53.7593C69.2512 50.4663 72.6537 45.0257 74.3718 39.2061C76.3341 32.5864 75.8709 26.371 73.0917 21.7137L73.1001 21.7389Z" fill="#516C8A"/>
<path d="M73.3698 21.5873C72.4433 20.0545 71.1548 18.766 69.5883 17.8817C67.946 16.9468 66.0763 16.4836 64.1982 16.3489C61.2758 16.1467 58.3281 16.7615 55.6078 17.7974C52.5843 18.9428 49.7882 20.602 47.2363 22.5811C44.2128 24.9309 41.5768 27.7438 39.3112 30.8347C38.0227 32.5864 36.8604 34.4393 35.833 36.3511C34.6623 38.5239 33.6601 40.781 32.54 42.9792C30.5692 46.8533 28.43 50.6684 25.9287 54.2309C24.9518 55.6206 23.9159 56.9765 22.7789 58.2398C21.3219 59.8653 19.688 61.4317 17.751 62.4676C16.2855 63.2509 14.6096 63.6551 12.9673 63.2593C11.0892 62.8045 9.75849 61.516 9.14369 59.6968C8.62995 58.1809 8.52888 56.547 8.58784 54.9552C8.65521 53.1614 8.93314 51.3759 9.30371 49.6241C9.97747 46.4996 10.9544 43.434 12.1082 40.4526C12.2851 39.9978 12.462 39.543 12.6472 39.0966L12.344 39.324C15.4939 39.7114 18.6016 38.5492 21.2798 36.9743C24.0927 35.3236 26.6109 33.1507 28.8848 30.8262C30.8219 28.8555 32.6158 26.7332 34.2159 24.4761C35.3024 22.9433 36.3551 21.3599 37.2394 19.7176C38.1237 18.0754 38.907 16.1636 38.7975 14.2181C38.5701 10.3356 35.0245 7.95213 31.8662 6.3688C31.723 6.30142 31.5209 6.32669 31.4367 6.47828C31.0324 7.28679 30.6366 8.08688 30.2323 8.89539C30.165 9.03857 30.1902 9.24069 30.3418 9.32491C32.5231 10.4198 35.8161 12.18 35.454 15.094C35.2855 16.4415 34.5781 17.7048 33.8959 18.8586C33.1127 20.1893 32.262 21.5031 31.3609 22.758C29.9039 24.7961 28.27 26.6995 26.5182 28.4849C24.5728 30.4641 22.4673 32.3169 20.1091 33.7908C18.1299 35.0288 15.8307 36.1068 13.4389 36.0647C11.2829 36.0226 9.54795 34.8772 8.29307 33.1844C6.71816 31.0536 5.82543 28.4512 5.16851 25.9078C4.35158 22.7496 3.90521 19.4903 3.66098 16.2478C3.53465 14.5887 3.45885 12.9295 3.44201 11.2704C3.42516 9.74601 3.47569 8.16268 3.94732 6.69725C4.25894 5.73715 4.79794 4.86126 5.79174 4.49911C7.09715 4.01906 8.62153 4.19592 9.96904 4.37278C10.8955 4.49069 11.8219 4.65071 12.7399 4.81915C12.8915 4.84442 13.0936 4.77704 13.1273 4.60018C13.2873 3.71587 13.4473 2.83156 13.6073 1.93883C13.6326 1.78724 13.5652 1.58511 13.3884 1.55142C9.84271 0.911348 5.0506 -0.116134 2.28819 2.94947C-0.019432 5.50975 0.0563664 9.45967 0.149008 12.6853C0.233228 15.6498 0.469044 18.6144 0.906987 21.5536C1.39546 24.8298 2.11975 28.1144 3.40832 31.18C4.52844 33.8497 6.14546 36.4858 8.66364 38.0439C8.94998 38.2208 9.25318 38.3808 9.55637 38.5324L9.41319 38.1786C7.98988 41.6653 6.8108 45.2868 6.03598 48.9756C5.56434 51.2243 5.24431 53.5319 5.25273 55.8311C5.26115 57.9282 5.55592 60.0674 6.47392 61.9707C7.56036 64.211 9.52268 65.7775 11.9145 66.4344C13.5652 66.8892 15.3086 66.8471 16.9424 66.3754C19.8733 65.5248 22.3578 63.4951 24.4296 61.3223C27.5626 58.0545 30.0807 54.1973 32.3463 50.2895C33.8201 47.746 35.1845 45.1436 36.4815 42.5075C37.7784 39.8715 39.0249 37.2522 40.6251 34.7846C43.598 30.2114 47.4469 26.1184 52.0958 23.2296C54.454 21.7642 57.0311 20.5935 59.7514 20.0124C62.1348 19.4987 64.7372 19.4145 67.028 20.3493C68.0302 20.7536 68.9398 21.3684 69.6641 22.1684C70.4473 23.0275 71.0032 24.0971 71.4243 25.1751C72.4096 27.6596 72.6792 30.3715 72.477 33.016C72.2496 35.9973 71.4495 38.945 70.2705 41.6822C69.1672 44.2509 67.727 46.7101 65.9247 48.8577C65.133 49.8094 64.2656 50.6937 63.3139 51.4854C63.1791 51.6033 63.2128 51.8054 63.3139 51.9317C63.8866 52.6223 64.4593 53.3214 65.032 54.012C65.1499 54.1467 65.352 54.113 65.4784 54.012C68.9735 51.098 71.5674 47.1228 73.3361 42.9708C75.2479 38.4734 76.3175 33.4455 75.6774 28.5523C75.3573 26.1015 74.5994 23.7181 73.3445 21.5957C73.1424 21.2504 72.5949 21.5621 72.8055 21.9074C75.1047 25.7899 75.6184 30.4557 74.9952 34.8688C74.3214 39.602 72.4854 44.2088 69.8157 48.1755C68.4766 50.18 66.8932 52.0244 65.0404 53.5656H65.4868C64.9141 52.875 64.3414 52.176 63.7687 51.4854V51.9317C65.7815 50.2473 67.4407 48.1418 68.805 45.91C70.3041 43.4508 71.4748 40.781 72.2328 38.0102C72.9908 35.2394 73.3698 32.3085 73.0834 29.4366C72.8392 27.0279 72.1401 24.4929 70.7252 22.4969C67.8197 18.3954 62.1096 18.5386 57.7975 19.8945C52.5506 21.5368 47.9354 24.9982 44.2718 29.0324C42.4358 31.0536 40.8104 33.2602 39.387 35.5847C37.8206 38.1534 36.6078 40.8989 35.2518 43.5856C32.8853 48.2766 30.2997 52.9087 27.1499 57.1197C25.0276 59.9579 22.5599 62.7793 19.4606 64.59C18.3321 65.2553 17.1109 65.7606 15.8223 65.9965C13.7421 66.3754 11.5187 65.9543 9.73323 64.809C5.71594 62.2318 5.56434 56.7744 6.06124 52.5381C6.54972 48.3271 7.77933 44.1919 9.2616 40.2252C9.49741 39.5935 9.75007 38.9619 10.0027 38.3302C10.0533 38.2123 9.97746 38.027 9.85956 37.9765C7.32454 36.7806 5.6233 34.4393 4.4358 31.9716C3.05459 29.1082 2.27135 25.9583 1.72392 22.8422C1.21018 19.9114 0.932253 16.9468 0.797501 13.9739C0.730125 12.5084 0.679593 11.043 0.755391 9.57757C0.848033 7.84264 1.10069 6.00665 1.95974 4.46543C2.72614 3.08422 3.98101 2.13254 5.51381 1.75355C7.44245 1.27349 9.51426 1.55142 11.4429 1.85461C12.024 1.94725 12.6135 2.04832 13.1947 2.14938L12.9757 1.76197C12.8157 2.64628 12.6557 3.53059 12.4956 4.42332L12.8831 4.20435C11.1229 3.89273 9.31213 3.53059 7.51825 3.58112C6.35601 3.60638 5.10114 3.85062 4.2842 4.75177C3.46727 5.65293 3.15566 6.9078 2.98722 8.07004C2.73456 9.79654 2.78509 11.5399 2.85247 13.2748C2.98722 16.7363 3.3241 20.1977 3.98943 23.6002C4.56213 26.4973 5.36222 29.445 6.8108 32.039C7.88881 33.9761 9.43846 35.8036 11.645 36.4269C13.9695 37.0838 16.4203 36.3932 18.5258 35.3657C21.0861 34.1192 23.3684 32.3085 25.4487 30.3715C27.4784 28.4765 29.348 26.4047 31.0409 24.1981C31.8578 23.1285 32.6158 22.0084 33.3485 20.8799C34.2412 19.5071 35.1424 18.0922 35.7066 16.551C36.1109 15.4393 36.2709 14.2265 35.8077 13.1148C35.294 11.8768 34.2159 10.9504 33.1379 10.2092C32.3463 9.66179 31.5125 9.19858 30.6534 8.76906L30.7629 9.19858C31.1672 8.39007 31.563 7.58998 31.9673 6.78147L31.5378 6.89096C34.2244 8.23848 37.3237 10.1334 38.0311 13.2917C38.4522 15.1866 37.8374 17.0984 36.9952 18.7828C36.1277 20.5262 35.0245 22.16 33.9212 23.7602C32.4726 25.8573 30.8303 27.828 29.0785 29.6809C26.9141 31.9716 24.5475 34.1192 21.8946 35.8289C19.0732 37.6565 15.7549 39.0966 12.3188 38.6755C12.1756 38.6587 12.0661 38.785 12.0156 38.9029C10.946 41.5053 10.028 44.1667 9.29529 46.8785C8.38571 50.2558 7.63615 53.8856 8.00672 57.3976C8.18358 59.0567 8.62995 60.7664 9.72481 62.055C10.8365 63.3604 12.5883 64.0341 14.2811 64.0257C16.0413 64.0257 17.7088 63.2846 19.1406 62.3161C20.9008 61.1286 22.4167 59.5958 23.7895 57.9787C26.2656 55.0647 28.3374 51.8223 30.2323 48.5124C31.4283 46.4238 32.5484 44.3014 33.6264 42.1538C34.7128 39.9725 35.7151 37.7407 36.9278 35.6268C38.9828 32.0306 41.501 28.6871 44.4739 25.7899C46.9668 23.3644 49.7713 21.2589 52.8622 19.6671C55.3888 18.3701 58.1428 17.3848 60.9726 17.0479C64.5519 16.6184 68.4429 17.2332 71.1463 19.7934C71.7948 20.4082 72.3507 21.1157 72.8139 21.8821C73.0245 22.2274 73.5635 21.9074 73.3529 21.5705L73.3698 21.5873Z" fill="#0B2B4B"/>
<path d="M20.1765 34.5572C19.9407 33.9592 19.2585 33.6645 18.669 33.9171C16.2435 34.9614 13.8685 35.6352 11.7377 34.8941C10.3144 34.3972 9.07634 33.3528 8.02359 31.8958C7.62776 31.3484 6.81925 31.2979 6.37288 31.8032C5.93494 32.3001 5.51384 32.8138 5.10117 33.336C4.79797 33.715 4.78955 34.254 5.08432 34.6414C6.21287 36.1068 7.53512 37.3028 9.07634 38.1113C8.78157 38.8524 8.41943 39.7872 8.04044 40.8568C7.81305 41.4969 8.12466 42.2043 8.75631 42.457C9.23636 42.6507 9.70799 42.836 10.188 43.0129C10.845 43.2487 11.5777 42.9034 11.8135 42.2465C12.2093 41.1263 12.5967 40.1157 12.9505 39.2567C13.3463 39.2988 13.7421 39.3156 14.1548 39.3156C16.0497 39.3156 18.0458 38.5576 20.1344 37.6649C20.6566 37.4375 20.9345 36.848 20.7745 36.3005C20.5976 35.6942 20.3871 35.113 20.1681 34.5488L20.1765 34.5572ZM68.6956 48.184C67.2049 46.8785 65.1836 46.2469 63.2045 46.3059C60.341 46.3817 57.7975 47.7797 56.6185 50.4579C55.9363 52.0075 55.5657 53.7172 55.7847 55.3932C56.0036 57.0692 56.8627 58.6946 58.2607 59.6463C60.1388 60.918 62.6486 60.8085 64.8046 60.1011C66.3206 59.6042 67.7776 58.8209 68.9061 57.6924C70.0347 56.5638 70.8348 55.0563 70.9527 53.4645C71.1043 51.4854 70.1947 49.4978 68.704 48.1924L68.6956 48.184Z" fill="#89DDD8"/>
<path d="M60.425 52.1591C60.1303 52.8329 59.9702 53.574 60.0629 54.2983C60.1555 55.0226 60.5345 55.7301 61.1325 56.1427C61.941 56.6902 63.0358 56.6481 63.9707 56.3364C64.6276 56.1175 65.2592 55.7806 65.7477 55.2921C66.2362 54.8036 66.5815 54.1467 66.6404 53.4561C66.7078 52.5971 66.312 51.738 65.6635 51.1738C65.015 50.6095 64.1391 50.3316 63.2801 50.3568C62.0336 50.3905 60.9388 50.9969 60.425 52.1591Z" fill="#64AFA7"/>
<path d="M13.1946 6.30984C15.039 5.78767 17.0519 2.94946 15.1569 1.36613C13.1525 -0.318266 11.1312 2.56205 10.9375 4.3812C10.8786 4.9539 10.9375 5.60239 11.3586 6.01507C11.8218 6.46985 12.5714 6.49512 13.1946 6.30984ZM31.0576 4.96232C29.2385 5.47606 27.2509 8.27216 29.1206 9.83865C31.0997 11.4978 33.0873 8.65957 33.281 6.86569C33.34 6.29299 33.281 5.66134 32.8684 5.25709C32.4136 4.8023 31.6724 4.78546 31.0576 4.96232ZM71.1463 51.7801C70.8347 50.2305 69.9419 48.7988 68.7208 47.805C67.4996 46.8112 65.8825 46.1879 64.2655 46.0363C61.4189 45.7584 58.4459 46.8785 56.8626 49.3378C56.6605 49.6494 56.492 49.9694 56.3404 50.3063C55.6246 51.9402 55.2287 53.734 55.4814 55.5279C55.6919 57.0439 56.4162 58.5346 57.5869 59.5368C60.1303 61.7097 63.9455 61.0612 66.6911 59.6631C68.1565 58.9136 69.4619 57.8187 70.3125 56.3954C71.1379 55.0058 71.4747 53.3803 71.1547 51.7886L71.1463 51.7801ZM70.2704 55.0479C69.7482 56.4459 68.6786 57.6503 67.4322 58.4925C66.1857 59.3347 64.7372 59.8989 63.2549 60.1684C61.7726 60.4379 60.2819 60.3706 58.9765 59.7136C57.6711 59.0483 56.7784 57.8608 56.3404 56.4964C55.852 54.9552 55.9783 53.3045 56.4499 51.7801C56.5763 51.3843 56.7194 50.9969 56.8794 50.6179C56.8794 50.6095 56.8794 50.6011 56.8879 50.5926C57.4185 49.422 58.2438 48.4198 59.3387 47.7376C60.4419 47.047 61.6884 46.7017 62.9685 46.6343C65.9331 46.4827 68.9818 47.9397 70.1778 50.7779C70.7589 52.1507 70.7841 53.6667 70.262 55.0563L70.2704 55.0479ZM63.8781 50.0789C62.4127 49.8936 60.8041 50.5758 60.1472 51.9991C59.5661 53.3551 59.4818 55.09 60.6609 56.168C61.8484 57.246 63.4991 56.9597 64.7708 56.3533C66.1099 55.7132 67.1543 54.3657 66.9185 52.816C66.6826 51.2664 65.3435 50.2642 63.8781 50.0789ZM64.9814 55.5111C64.0297 56.1427 62.5727 56.5638 61.4947 55.9996C60.1556 55.2837 60.1556 53.5403 60.6862 52.3191C61.1494 51.3169 62.1011 50.7274 63.1959 50.6853C64.4171 50.6347 65.6804 51.2327 66.1521 52.4118C66.6321 53.6161 66.0089 54.8457 64.9814 55.5195V55.5111ZM19.3511 33.5381C18.8626 33.4539 18.4499 33.6813 18.012 33.8582C17.4814 34.0771 16.9508 34.2708 16.4034 34.4393C15.3843 34.7509 14.3147 34.9614 13.2451 34.8856C11.2912 34.7593 9.68263 33.5381 8.5204 32.039C8.24247 31.6853 8.01508 31.3484 7.56029 31.2052C7.18972 31.0873 6.7602 31.1463 6.43175 31.3568C6.22962 31.4832 6.08644 31.6769 5.92643 31.8537C5.73272 32.0811 5.53901 32.3085 5.35373 32.5443C5.04212 32.9233 4.65471 33.3023 4.57891 33.8076C4.49469 34.3887 4.79788 34.8014 5.14318 35.2309C5.4969 35.6605 5.86747 36.0731 6.26331 36.4605C6.9876 37.168 7.80453 37.7828 8.68884 38.2797C8.40249 39.004 8.12456 39.7283 7.85506 40.461C7.71189 40.8484 7.6024 41.2021 7.6782 41.6148C7.73715 41.9433 7.91402 42.2633 8.16667 42.4823C8.49513 42.7686 8.93307 42.8949 9.32891 43.0465C9.72474 43.1981 10.1543 43.4171 10.5922 43.4171C11.367 43.4171 11.906 42.8949 12.1587 42.2043C12.4703 41.3285 12.7988 40.461 13.1525 39.6019C14.3231 39.6946 15.4685 39.6019 16.6055 39.2988C17.8183 38.9871 19.0816 38.465 20.2859 37.9597C20.3112 37.9512 20.3364 37.9344 20.3533 37.926C20.6902 37.7491 20.9597 37.4291 21.0692 37.0501C21.2123 36.5616 21.0355 36.0984 20.8755 35.6352C20.5975 34.8014 20.3617 33.7234 19.3426 33.555L19.3511 33.5381ZM19.9743 37.4038C18.8205 37.8923 17.6583 38.3639 16.4455 38.684C15.2327 39.004 14.1463 39.0629 12.9504 38.945C12.7988 38.9282 12.6977 39.0545 12.6472 39.1724C12.285 40.0652 11.9397 40.9747 11.6113 41.8843C11.4765 42.2633 11.3249 42.5918 10.9207 42.7349C10.5164 42.8697 10.0869 42.6507 9.69947 42.5075C9.31206 42.3559 8.76463 42.238 8.48671 41.8927C8.24247 41.5811 8.25931 41.2105 8.38564 40.8568C8.69726 39.9641 9.04256 39.0882 9.38786 38.2123C9.43839 38.086 9.35417 37.9176 9.24469 37.8586C8.47829 37.4543 7.77084 36.9659 7.12235 36.3932C6.78547 36.0984 6.47385 35.7868 6.17066 35.4583C5.86747 35.1299 5.55586 34.8098 5.32004 34.4393C5.05896 34.035 5.25267 33.6813 5.52217 33.3444C5.84221 32.9402 6.17066 32.5443 6.50754 32.1569C6.73494 31.8874 7.00444 31.7105 7.36658 31.8116C7.754 31.9211 7.95612 32.3422 8.19194 32.637C9.21942 33.9087 10.5922 34.9951 12.2092 35.3741C14.0705 35.8121 16.0075 35.3152 17.7509 34.6414C18.0204 34.5403 18.2815 34.4308 18.5426 34.3214C18.7531 34.2371 18.9468 34.1361 19.1742 34.1529C19.6122 34.1866 19.8227 34.4982 19.9575 34.8772C20.1512 35.3825 20.3617 35.9131 20.488 36.4437C20.5807 36.8648 20.3617 37.2354 19.9827 37.4122L19.9743 37.4038Z" fill="#0B2B4B"/>
</g>
<path d="M103.407 47.5635C102.969 47.5635 102.568 47.5458 102.201 47.5103C101.846 47.4867 101.444 47.4335 100.995 47.3507C100.546 47.268 99.9783 47.1379 99.2926 46.9606C99.4818 46.5468 99.7301 46.1035 100.037 45.6305C100.357 45.1576 100.747 44.7557 101.208 44.4246C101.669 44.0818 102.225 43.9103 102.875 43.9103C102.899 43.9103 102.922 43.9103 102.946 43.9103C102.981 43.9103 103.005 43.9103 103.017 43.9103C104.353 43.8867 105.5 43.5911 106.457 43.0236C107.415 42.4561 108.201 41.7113 108.816 40.7892C109.442 39.8551 109.903 38.8207 110.199 37.6857C110.495 36.5389 110.642 35.3744 110.642 34.1921C110.642 32.3359 110.311 30.6808 109.649 29.2266C108.999 27.7724 107.965 26.6315 106.546 25.8039C105.127 24.9645 103.277 24.5448 100.995 24.5448C100.534 24.5448 100.049 24.5684 99.5409 24.6158C99.0325 24.6631 98.5005 24.734 97.9448 24.8286V47.1379H92.9438V21.8138C94.5281 21.4709 96.0059 21.2345 97.3773 21.1044C98.7606 20.9626 99.9665 20.8916 100.995 20.8916C104.14 20.8916 106.83 21.4177 109.064 22.4699C111.31 23.5104 113.025 25.0236 114.207 27.0098C115.401 28.9961 115.998 31.3901 115.998 34.1921C115.998 36.0601 115.685 37.8039 115.058 39.4236C114.432 41.0433 113.551 42.462 112.416 43.6798C111.281 44.8975 109.945 45.8492 108.408 46.535C106.883 47.2207 105.216 47.5635 103.407 47.5635ZM126.144 47.599C124.477 47.599 122.923 47.2266 121.48 46.4818C120.038 45.7251 118.868 44.6315 117.969 43.201C117.082 41.7586 116.639 40.0089 116.639 37.9517C116.639 36.2847 116.935 34.8483 117.526 33.6424C118.129 32.4246 118.909 31.4256 119.867 30.6453C120.824 29.865 121.853 29.2857 122.952 28.9074C124.064 28.5291 125.128 28.3399 126.144 28.3399C128.024 28.3399 129.673 28.7478 131.092 29.5635C132.523 30.3793 133.64 31.5143 134.444 32.9685C135.248 34.4108 135.65 36.0719 135.65 37.9517C135.65 39.4532 135.378 40.801 134.834 41.9951C134.29 43.1891 133.563 44.2059 132.653 45.0453C131.742 45.8729 130.72 46.5054 129.585 46.9428C128.462 47.3803 127.315 47.599 126.144 47.599ZM126.144 43.9813C127.067 43.9813 127.841 43.7094 128.468 43.1655C129.094 42.6217 129.567 41.8946 129.886 40.9842C130.205 40.0739 130.365 39.0631 130.365 37.9517C130.365 36.8522 130.205 35.8473 129.886 34.9369C129.567 34.0266 129.094 33.3054 128.468 32.7734C127.841 32.2295 127.067 31.9576 126.144 31.9576C125.222 31.9576 124.442 32.2295 123.803 32.7734C123.177 33.3054 122.698 34.0266 122.367 34.9369C122.048 35.8473 121.888 36.8522 121.888 37.9517C121.888 39.7251 122.272 41.1734 123.041 42.2965C123.821 43.4197 124.856 43.9813 126.144 43.9813ZM146.161 47.599C144.517 47.599 142.969 47.268 141.515 46.6059C140.072 45.9438 138.901 44.9034 138.003 43.4847C137.105 42.066 136.655 40.2217 136.655 37.9517C136.655 35.8118 137.105 34.0325 138.003 32.6138C138.901 31.1832 140.072 30.1133 141.515 29.4039C142.969 28.6946 144.517 28.3399 146.161 28.3399C146.799 28.3399 147.497 28.4049 148.254 28.535C149.01 28.6532 149.743 28.8483 150.453 29.1202L149.247 32.4187C148.679 32.2768 148.117 32.1704 147.562 32.0995C147.018 32.0286 146.551 31.9931 146.161 31.9931C145.31 31.9931 144.565 32.2355 143.926 32.7202C143.288 33.1931 142.791 33.8788 142.437 34.7773C142.082 35.664 141.905 36.7222 141.905 37.9517C141.905 39.1931 142.082 40.263 142.437 41.1616C142.791 42.0483 143.288 42.734 143.926 43.2187C144.565 43.7034 145.31 43.9458 146.161 43.9458C146.657 43.9458 147.189 43.8808 147.757 43.7507C148.324 43.6089 148.986 43.3902 149.743 43.0946L150.949 46.3576C150.027 46.7832 149.158 47.0966 148.342 47.2975C147.526 47.4985 146.799 47.599 146.161 47.599Z" fill="white"/>
<path d="M153.24 47.1379L162.497 21.3527H167.462L176.719 47.1379H171.47L165.086 27.9498L164.802 26.6374L164.483 28.0207L161.468 37.2069L161.042 37.9163L161.574 37.8453H164.27C164.956 37.8453 165.529 38.0404 165.99 38.4305C166.463 38.8207 166.841 39.2995 167.125 39.867C167.421 40.4345 167.651 40.9783 167.817 41.4985H160.12L158.24 47.1379H153.24ZM186.994 47.3933C183.589 47.3933 180.833 46.4037 178.726 44.4246C176.641 42.4455 175.598 39.7748 175.598 36.4124C175.598 33.05 176.673 30.3474 178.822 28.3044C180.993 26.2615 183.727 25.24 187.026 25.24C189.473 25.24 191.569 25.6975 193.314 26.6126V30.7304C191.356 29.56 189.292 28.9748 187.122 28.9748C184.951 28.9748 183.206 29.6451 181.887 30.9858C180.567 32.3265 179.907 34.1247 179.907 36.3805C179.907 38.6363 180.546 40.4238 181.823 41.7433C183.121 43.0414 184.898 43.6904 187.154 43.6904C188.26 43.6904 189.335 43.4989 190.378 43.1159V38.0404H186.419V34.5929H194.336V44.9354H194.304L194.336 45.2865C192.378 46.691 189.931 47.3933 186.994 47.3933ZM209.829 47.1379H196.996V25.6231H209.701V28.9109H201.05V34.7525H208.743V38.0085H201.05V43.85H209.829V47.1379ZM216.287 47.1379H212.265V25.6231H216.83C221.171 33.1777 223.661 37.5616 224.299 38.7746C224.959 39.9876 225.523 41.1261 225.991 42.1901C225.821 40.4238 225.736 37.8914 225.736 34.5929V25.6231H229.79V47.1379H225.193L219.958 38.2C218.298 35.3909 216.957 32.816 215.936 30.4751C216.17 32.4967 216.287 35.0611 216.287 38.1681V47.1379ZM239.541 29.0067H236.764V43.7862H239.605C241.861 43.7862 243.574 43.0946 244.744 41.7113C245.915 40.3068 246.5 38.5086 246.5 36.3166C246.5 34.1034 245.872 32.3371 244.617 31.0177C243.382 29.677 241.69 29.0067 239.541 29.0067ZM239.669 47.1379H232.646V25.6231H239.669C242.882 25.6231 245.51 26.6126 247.553 28.5917C249.596 30.5708 250.618 33.1458 250.618 36.3166C250.618 39.4662 249.628 42.0625 247.649 44.1054C245.67 46.1271 243.01 47.1379 239.669 47.1379Z" fill="#0B2B4B"/>
<path d="M249.597 47.1379L257.234 25.8651H261.331L268.968 47.1379H264.637L259.37 31.3077L259.136 30.225L258.873 31.3662L256.386 38.9448L256.035 39.5301L256.474 39.4715H258.697C259.263 39.4715 259.736 39.6325 260.117 39.9543C260.507 40.2762 260.819 40.6712 261.053 41.1394C261.297 41.6076 261.487 42.0563 261.623 42.4854H255.274L253.723 47.1379H249.597Z" fill="#0B2B4B"/>
<defs>
<clipPath id="clip0_532_35">
<rect width="76" height="67" fill="white"/>
</clipPath>
</defs>
</svg>
